# xmcd
#
# Track frame offsets: 
#        150
#        10232
#        23086
#        34612
#        46768
#        57833
#        72141
#        84080
#        97304
#        108281
#        123606
#        136314
#        148913
#        160363
#        174022
#
# Disc length: 2495 seconds
#
# Revision: 0
# Processed by: cddbd v1.5.2PL0 Copyright (c) Steve Scherf et al.
# Submitted via: ExactAudioCopy v1.1
#
DISCID=bf09bd0f
DTITLE=Conway Twitty - Complete Original #1 Hits Of The '60s And '70s
DYEAR=2011
DGENRE=Country
TTITLE0=It’s Only Make Believe
TTITLE1=Next In Line
TTITLE2=I Love You More Today
TTITLE3=To See My Angel Cry
TTITLE4=Hello, Darlin’
TTITLE5=Fifteen Years Ago
TTITLE6=After The Fire Is Gone
TTITLE7=How Much More Can She Stand?
TTITLE8=Lead Me On (With Loretta Lynn)
TTITLE9=(Lost Her Love) On Our Last Date
TTITLE10=I Can’t Stop Loving You
TTITLE11=She Needs Someone To Hold Her (When She Cries)
TTITLE12=Louisiana Man Mississippi Woman (With Loretta Lynn)
TTITLE13=You’ve Never Been This Far Before
TTITLE14=There’s A Honky Tonk Angel (Who’ll Take Me Back In)
EXTD=
EXTT0=
EXTT1=
EXTT2=
EXTT3=
EXTT4=
EXTT5=
EXTT6=
EXTT7=
EXTT8=
EXTT9=
EXTT10=
EXTT11=
EXTT12=
EXTT13=
EXTT14=
PLAYORDER=
